<?xml version="1.0" standalone="no"?>
<!DOCTYPE svg PUBLIC "-//W3C//DTD SVG 1.1//EN" "http://www.w3.org/Graphics/SVG/1.1/DTD/svg11.dtd" >
<svg xmlns="http://www.w3.org/2000/svg">
<metadata></metadata>
<defs>
<font id="final_fantasy_2regular" horiz-adv-x="2048" >
<font-face units-per-em="2048" ascent="1638" descent="-410" />
<missing-glyph horiz-adv-x="500" />
<glyph />
<glyph />
<glyph unicode="&#xd;" horiz-adv-x="768" />
<glyph unicode=" " />
<glyph unicode="!" d="M1024 0v256h512v-256h-512zM1024 512v1280h512v-1280h-512z" />
<glyph unicode="&#x22;" d="M512 1024v256h256v-256h-256zM512 1536v256h512v-512h-256v256h-256zM1280 1024v256h256v-256h-256zM1280 1536v256h512v-512h-256v256h-256z" />
<glyph unicode="#" d="M256 512v256h256v256h-256v256h256v512h512v-512h256v512h512v-512h256v-256h-256v-256h256v-256h-256v-512h-512v512h-256v-512h-512v512h-256zM1024 768h256v256h-256v-256z" />
<glyph unicode="$" d="M512 256v256h768v256h-512v256h-256v256h256v256h512v256h256v-256h512v-256h-768v-256h512v-256h256v-256h-256v-256h-256v-256h-256v256h-768z" />
<glyph unicode="%" d="M256 0v512h256v256h256v256h256v256h256v256h256v256h512v-512h-256v-256h-256v-256h-256v-256h-256v-256h-256v-256h-512zM256 1280v512h512v-512h-512zM1536 0v512h512v-512h-512z" />
<glyph unicode="&#x26;" d="M256 256v768h256v256h-256v256h256v256h512v-256h-256v-256h256v-256h256v-256h256v-256h256v-256h256v-256h-512v256h-256v256h-256v256h-256v-256h256v-512h-512v256h-256zM1024 1280v256h256v-256h-256zM1536 768v512h512v-256h-256v-256h-256z" />
<glyph unicode="'" d="M512 1024v256h256v-256h-256zM512 1536v256h512v-512h-256v256h-256z" />
<glyph unicode="(" d="M1024 512v1024h256v256h256v256h512v-256h-256v-256h-256v-256h-256v-512h256v-256h256v-256h256v-256h-512v256h-256v256h-256z" />
<glyph unicode=")" d="M256 0v256h256v256h256v256h256v512h-256v256h-256v256h-256v256h512v-256h256v-256h256v-1024h-256v-256h-256v-256h-512z" />
<glyph unicode="*" d="M512 768v256h512v256h256v-256h512v-256h-512v-256h-256v256h-512zM768 256v256h256v-256h-256zM768 1280v256h256v-256h-256zM1280 256v256h256v-256h-256zM1280 1280v256h256v-256h-256z" />
<glyph unicode="+" d="M512 768v256h512v512h256v-512h512v-256h-512v-512h-256v512h-512z" />
<glyph unicode="," d="M512 0v256h256v-256h-256zM512 512v256h512v-512h-256v256h-256z" />
<glyph unicode="-" d="M512 768v256h1280v-256h-1280z" />
<glyph unicode="." d="M512 0v512h512v-512h-512z" />
<glyph unicode="/" d="M0 0v256h256v-256h-256zM256 256v256h256v-256h-256zM512 512v256h256v-256h-256zM768 768v256h256v-256h-256zM1024 1024v256h256v-256h-256zM1280 1280v256h256v-256h-256zM1536 1536v256h256v-256h-256zM1792 1792v256h256v-256h-256z" />
<glyph unicode="0" d="M256 256v1280h256v256h1280v-256h256v-1280h-256v-256h-1280v256h-256zM768 256h768v1280h-768v-1280z" />
<glyph unicode="1" d="M512 0v256h256v1024h-256v256h256v256h512v-1536h256v-256h-1024z" />
<glyph unicode="2" d="M256 0v256h256v256h256v256h512v-256h-256v-256h1024v-256h-1792zM256 1024v512h256v256h1280v-256h256v-512h-256v-256h-512v256h256v512h-768v-512h-512z" />
<glyph unicode="3" d="M256 256v512h512v-512h768v512h-512v256h512v512h-768v-512h-512v512h256v256h1280v-256h256v-512h-256v-256h256v-512h-256v-256h-1280v256h-256z" />
<glyph unicode="4" d="M256 256v512h256v512h256v256h256v256h768v-1280h256v-256h-256v-256h-512v256h-1024zM768 512h512v768h-256v-256h-256v-512z" />
<glyph unicode="5" d="M256 256v256h512v-256h768v768h-1280v768h1792v-256h-1280v-256h1024v-256h256v-768h-256v-256h-1280v256h-256z" />
<glyph unicode="6" d="M256 256v1280h256v256h1280v-256h256v-256h-512v256h-768v-512h1024v-256h256v-512h-256v-256h-1280v256h-256zM768 256h768v512h-768v-512z" />
<glyph unicode="7" d="M256 1024v768h1792v-768h-256v-256h-256v-256h-256v-512h-512v512h256v256h256v256h256v512h-768v-512h-512z" />
<glyph unicode="8" d="M256 256v512h256v256h-256v512h256v256h1280v-256h256v-512h-256v-256h256v-512h-256v-256h-1280v256h-256zM768 256h768v512h-768v-512zM768 1024h768v512h-768v-512z" />
<glyph unicode="9" d="M256 256v256h512v-256h768v512h-1024v256h-256v512h256v256h1280v-256h256v-1280h-256v-256h-1280v256h-256zM768 1024h768v512h-768v-512z" />
<glyph unicode=":" d="M512 0v512h512v-512h-512zM512 1024v512h512v-512h-512z" />
<glyph unicode=";" d="M512 0v256h256v-256h-256zM512 512v256h512v-512h-256v256h-256zM512 1024v512h512v-512h-512z" />
<glyph unicode="&#x3c;" d="M512 768v256h256v256h256v256h256v256h512v-256h-256v-256h-256v-256h-256v-256h256v-256h256v-256h256v-256h-512v256h-256v256h-256v256h-256z" />
<glyph unicode="=" d="M512 512v256h1280v-256h-1280zM512 1024v256h1280v-256h-1280z" />
<glyph unicode="&#x3e;" d="M512 0v256h256v256h256v256h256v256h-256v256h-256v256h-256v256h512v-256h256v-256h256v-256h256v-256h-256v-256h-256v-256h-256v-256h-512z" />
<glyph unicode="?" d="M512 1280v256h256v256h1024v-256h256v-512h-256v-256h-256v-256h-512v256h256v256h256v512h-512v-256h-512zM1024 0v256h512v-256h-512z" />
<glyph unicode="@" d="M256 256v1280h256v256h1280v-256h256v-1024h-1024v512h512v512h-768v-1280h1024v-256h-1280v256h-256z" />
<glyph unicode="A" d="M256 0v512h256v512h256v768h768v-768h256v-512h256v-512h-512v512h-768v-512h-512zM1024 768h256v512h-256v-512z" />
<glyph unicode="B" d="M256 0v1792h1536v-256h256v-512h-256v-256h256v-512h-256v-256h-1536zM768 256h768v512h-768v-512zM768 1024h768v512h-768v-512z" />
<glyph unicode="C" d="M256 256v1280h256v256h1280v-256h256v-512h-512v512h-768v-1280h768v512h512v-512h-256v-256h-1280v256h-256z" />
<glyph unicode="D" d="M256 0v1792h1280v-256h256v-256h256v-768h-256v-256h-256v-256h-1280zM768 256h512v256h256v768h-256v256h-512v-1280z" />
<glyph unicode="E" d="M256 0v1792h1792v-256h-1280v-512h768v256h256v-768h-256v256h-768v-512h1280v-256h-1792z" />
<glyph unicode="F" d="M256 0v1792h1792v-256h-1280v-512h768v256h256v-768h-256v256h-768v-768h-512z" />
<glyph unicode="G" d="M256 256v1280h256v256h1280v-256h256v-256h-512v256h-768v-1280h768v256h256v256h-512v256h768v-768h-256v-256h-1280v256h-256z" />
<glyph unicode="H" d="M256 0v1792h512v-768h768v768h512v-1792h-512v768h-768v-768h-512z" />
<glyph unicode="I" d="M768 0v256h256v1280h-256v256h1024v-256h-256v-1280h256v-256h-1024z" />
<glyph unicode="J" d="M256 256v512h512v-512h768v1280h-256v256h768v-1536h-256v-256h-1280v256h-256z" />
<glyph unicode="K" d="M256 0v1792h512v-768h256v256h256v256h256v256h512v-256h-256v-256h-256v-256h-256v-256h256v-256h256v-256h256v-256h-512v256h-256v256h-256v256h-256v-768h-512z" />
<glyph unicode="L" d="M256 0v1792h512v-1536h1024v256h256v-512h-1792z" />
<glyph unicode="M" d="M256 0v1792h512v-512h256v-256h256v256h256v512h512v-1792h-512v768h-256v-256h-256v256h-256v-768h-512z" />
<glyph unicode="N" d="M256 0v1792h512v-512h256v-256h256v-256h256v1024h512v-1792h-512v256h-256v256h-256v256h-256v-768h-512z" />
<glyph unicode="O" d="M256 256v1280h256v256h1280v-256h256v-1280h-256v-256h-1280v256h-256zM768 256h768v1280h-768v-1280z" />
<glyph unicode="P" d="M256 0v1792h1536v-256h256v-768h-256v-256h-1024v-512h-512zM768 768h768v768h-768v-768z" />
<glyph unicode="Q" d="M256 256v1280h256v256h1280v-256h256v-1024h-256v256h-256v768h-768v-1280h512v-256h-768v256h-256zM1024 512v256h512v-256h256v-256h256v-256h-512v256h-256v256h-256z" />
<glyph unicode="R" d="M256 0v1792h1536v-256h256v-512h-256v-256h-256v-256h256v-256h256v-256h-512v256h-256v256h-256v256h-256v-768h-512zM768 1024h768v512h-768v-512z" />
<glyph unicode="S" d="M256 256v256h512v-256h768v512h-1024v256h-256v512h256v256h1280v-256h256v-256h-512v256h-768v-512h1024v-256h256v-512h-256v-256h-1280v256h-256z" />
<glyph unicode="T" d="M0 1280v512h2048v-512h-256v256h-512v-1280h256v-256h-1024v256h256v1280h-512v-256h-256z" />
<glyph unicode="U" d="M256 256v1536h512v-1536h768v1536h512v-1536h-256v-256h-1280v256h-256z" />
<glyph unicode="V" d="M256 1280v512h512v-768h256v-512h256v512h256v768h512v-512h-256v-768h-256v-512h-768v512h-256v768h-256z" />
<glyph unicode="W" d="M256 256v1536h512v-1024h256v512h256v-512h256v1024h512v-1536h-256v-256h-256v256h-256v256h-256v-256h-256v-256h-256v256h-256z" />
<glyph unicode="X" d="M256 0v256h256v256h256v512h-256v256h-256v512h256v-256h256v-256h256v-256h256v256h256v256h256v256h256v-512h-256v-256h-256v-512h256v-256h256v-256h-512v256h-256v256h-256v-256h-256v-256h-512z" />
<glyph unicode="Y" d="M0 1536v256h512v-256h256v-256h512v256h256v256h512v-256h-256v-256h-256v-256h-256v-768h256v-256h-1024v256h256v768h-256v256h-256v256h-256z" />
<glyph unicode="Z" d="M256 0v256h256v256h256v256h256v256h256v256h256v256h-1024v-256h-256v512h1792v-512h-256v-256h-256v-256h-256v-256h-256v-256h768v256h256v-512h-1792z" />
<glyph unicode="[" d="M1024 0v2048h1024v-256h-512v-256h-256v-1024h256v-256h512v-256h-1024z" />
<glyph unicode="\" d="M0 1792v256h256v-256h-256zM256 1536v256h256v-256h-256zM512 1280v256h256v-256h-256zM768 1024v256h256v-256h-256zM1024 768v256h256v-256h-256zM1280 512v256h256v-256h-256zM1536 256v256h256v-256h-256zM1792 0v256h256v-256h-256z" />
<glyph unicode="]" d="M256 0v256h512v256h256v1024h-256v256h-512v256h1024v-2048h-1024z" />
<glyph unicode="_" d="M256 0v256h1792v-256h-1792z" />
<glyph unicode="a" d="M512 256v256h256v256h512v256h-512v256h768v-256h256v-768h256v-256h-1280v256h-256zM1024 256h256v256h-256v-256z" />
<glyph unicode="b" d="M512 0v1792h512v-512h512v-256h256v-768h-256v-256h-1024zM1024 256h256v768h-256v-768z" />
<glyph unicode="c" d="M512 256v768h256v256h768v-256h256v-256h-512v256h-256v-768h256v256h512v-256h-256v-256h-768v256h-256z" />
<glyph unicode="d" d="M512 256v768h256v256h512v512h512v-1536h256v-256h-1280v256h-256zM1024 256h256v768h-256v-768z" />
<glyph unicode="e" d="M512 256v768h256v256h768v-256h-512v-256h512v256h256v-512h-768v-256h768v-256h-1024v256h-256z" />
<glyph unicode="f" d="M512 768v256h256v512h256v256h512v-256h-256v-512h256v-256h-256v-768h-512v768h-256zM1536 1280v256h256v-256h-256z" />
<glyph unicode="g" d="M512 256v512h256v768h1024v-256h-256v-512h256v-512h-256v-256h-768v256h-256zM1024 256h256v512h-256v-512zM1024 1024h256v256h-256v-256z" />
<glyph unicode="h" d="M512 0v1792h512v-768h512v-256h256v-768h-512v768h-256v-768h-512z" />
<glyph unicode="i" d="M1024 0v1024h512v-1024h-512zM1024 1280v256h512v-256h-512z" />
<glyph unicode="j" d="M512 256v256h256v-256h-256zM768 0v256h256v1024h512v-1024h-256v-256h-512zM1024 1536v256h512v-256h-512z" />
<glyph unicode="k" d="M512 0v1792h512v-1024h256v256h256v256h512v-256h-256v-256h-256v-256h256v-256h256v-256h-512v256h-256v256h-256v-512h-512z" />
<glyph unicode="l" d="M768 0v1792h512v-1792h-512z" />
<glyph unicode="m" d="M256 0v1280h1536v-256h-256v-1024h-512v1024h-256v-1024h-512zM1792 0v1024h256v-1024h-256z" />
<glyph unicode="n" d="M512 0v1280h1024v-256h256v-1024h-512v1024h-256v-1024h-512z" />
<glyph unicode="o" d="M512 256v768h256v256h768v-256h256v-768h-256v-256h-768v256h-256zM1024 256h256v768h-256v-768z" />
<glyph unicode="p" d="M512 0v1280h1024v-256h256v-256h-256v-256h-512v-512h-512zM1024 768h256v256h-256v-256z" />
<glyph unicode="q" d="M512 768v256h256v256h1280v-256h-256v-1024h-512v512h-512v256h-256zM1024 768h256v256h-256v-256z" />
<glyph unicode="r" d="M512 1024v256h512v-256h256v-1024h-512v1024h-256zM1280 1024v256h512v-256h-512zM1792 512v512h256v-512h-256z" />
<glyph unicode="s" d="M512 0v256h768v256h-512v256h-256v256h256v256h1280v-256h-768v-256h512v-256h256v-256h-256v-256h-1280z" />
<glyph unicode="t" d="M512 1024v256h256v256h512v-256h512v-256h-512v-768h256v-256h-512v256h-256v768h-256z" />
<glyph unicode="u" d="M512 256v1024h512v-1024h512v1024h512v-1024h-256v-256h-1024v256h-256z" />
<glyph unicode="v" d="M256 768v512h512v-512h256v-256h256v256h256v-512h-256v-256h-512v256h-256v512h-256zM1536 768v512h256v-512h-256z" />
<glyph unicode="w" d="M256 256v1024h512v-1024h256v-256h-512v256h-256zM1024 256v1024h512v-1024h256v-256h-512v256h-256zM1792 256v1024h256v-1024h-256z" />
<glyph unicode="x" d="M512 0v256h256v256h256v256h-256v256h-256v256h512v-256h512v256h512v-256h-256v-256h-256v-256h256v-256h256v-256h-512v256h-512v-256h-512z" />
<glyph unicode="y" d="M512 0v256h256v256h256v256h-256v256h-256v256h512v-256h512v256h512v-256h-256v-256h-256v-256h-256v-256h-256v-256h-512z" />
<glyph unicode="z" d="M256 0v256h256v256h256v256h256v256h-768v256h1536v-256h-256v-256h-256v-256h-256v-256h768v-256h-1536z" />
<glyph unicode="{" d="M1024 768v512h256v-512h-256zM1280 0v768h256v-256h256v-256h256v-256h-768zM1280 1280v768h768v-256h-256v-256h-256v-256h-256z" />
<glyph unicode="|" d="M768 0v1792h512v-1792h-512z" />
<glyph unicode="}" d="M256 0v256h256v256h256v256h256v-768h-768zM256 1792v256h768v-768h-256v256h-256v256h-256zM1024 768v512h256v-512h-256z" />
<glyph unicode="~" d="M256 768v256h256v256h768v-256h256v256h512v-256h-256v-256h-768v256h-256v-256h-512z" />
<glyph unicode="&#xa0;" />
<glyph unicode="&#xa1;" d="M1024 0v1280h512v-1280h-512zM1024 1536v256h512v-256h-512z" />
<glyph unicode="&#xa3;" d="M512 0v256h256v512h-256v256h256v512h256v256h512v-256h-256v-512h256v-256h-256v-512h512v-256h-1280zM1536 1280v256h256v-256h-256z" />
<glyph unicode="&#xa5;" d="M0 1536v256h512v-256h256v-256h512v256h256v256h512v-256h-256v-256h-256v-256h-256v-256h256v-256h-256v-256h256v-256h-1024v256h256v256h-256v256h256v256h-256v256h-256v256h-256z" />
<glyph unicode="&#xa6;" d="M768 0v768h512v-768h-512zM768 1024v768h512v-768h-512z" />
<glyph unicode="&#xab;" d="M256 768v256h256v-256h-256zM512 512v256h256v-256h-256zM512 1024v256h256v-256h-256zM768 256v256h256v-256h-256zM768 1280v256h256v-256h-256zM1024 768v256h256v-256h-256zM1280 512v256h256v-256h-256zM1280 1024v256h256v-256h-256zM1536 256v256h256v-256h-256z M1536 1280v256h256v-256h-256z" />
<glyph unicode="&#xac;" d="M256 768v256h1536v-768h-512v512h-1024z" />
<glyph unicode="&#xad;" d="M512 768v256h1280v-256h-1280z" />
<glyph unicode="&#xb1;" d="M512 0v256h1280v-256h-1280zM512 1024v256h512v512h256v-512h512v-256h-512v-512h-256v512h-512z" />
<glyph unicode="&#xb7;" d="M512 512v512h512v-512h-512z" />
<glyph unicode="&#xbb;" d="M512 256v256h256v-256h-256zM512 1280v256h256v-256h-256zM768 512v256h256v-256h-256zM768 1024v256h256v-256h-256zM1024 768v256h256v-256h-256zM1280 256v256h256v-256h-256zM1280 1280v256h256v-256h-256zM1536 512v256h256v-256h-256zM1536 1024v256h256v-256h-256 zM1792 768v256h256v-256h-256z" />
<glyph unicode="&#xbf;" d="M512 256v512h256v256h256v256h512v-256h-256v-256h-256v-512h512v512h512v-512h-256v-256h-1024v256h-256zM1024 1536v256h512v-256h-512z" />
<glyph unicode="&#xd7;" d="M512 256v256h256v-256h-256zM512 1280v256h256v-256h-256zM768 512v256h256v-256h-256zM768 1024v256h256v-256h-256zM1024 768v256h256v-256h-256zM1280 512v256h256v-256h-256zM1280 1024v256h256v-256h-256zM1536 256v256h256v-256h-256zM1536 1280v256h256v-256h-256 z" />
<glyph unicode="&#xf7;" d="M512 768v256h1280v-256h-1280zM1024 256v256h256v-256h-256zM1024 1280v256h256v-256h-256z" />
<glyph unicode="&#x2000;" horiz-adv-x="1024" />
<glyph unicode="&#x2001;" />
<glyph unicode="&#x2002;" horiz-adv-x="1024" />
<glyph unicode="&#x2003;" />
<glyph unicode="&#x2004;" horiz-adv-x="682" />
<glyph unicode="&#x2005;" horiz-adv-x="512" />
<glyph unicode="&#x2006;" horiz-adv-x="341" />
<glyph unicode="&#x2007;" horiz-adv-x="341" />
<glyph unicode="&#x2008;" horiz-adv-x="256" />
<glyph unicode="&#x2009;" horiz-adv-x="409" />
<glyph unicode="&#x200a;" horiz-adv-x="113" />
<glyph unicode="&#x2010;" d="M512 768v256h1280v-256h-1280z" />
<glyph unicode="&#x2011;" d="M512 768v256h1280v-256h-1280z" />
<glyph unicode="&#x2012;" d="M512 768v256h1280v-256h-1280z" />
<glyph unicode="&#x2013;" horiz-adv-x="1792" d="M512 768v256h1024v-256h-1024z" />
<glyph unicode="&#x2014;" d="M256 768v256h1536v-256h-1536z" />
<glyph unicode="&#x2018;" d="M512 1024v512h256v-256h256v-256h-512zM768 1536v256h256v-256h-256z" />
<glyph unicode="&#x2019;" d="M512 1024v256h256v-256h-256zM512 1536v256h512v-512h-256v256h-256z" />
<glyph unicode="&#x201a;" d="M512 0v256h256v-256h-256zM512 512v256h512v-512h-256v256h-256z" />
<glyph unicode="&#x201c;" d="M512 1024v512h256v-256h256v-256h-512zM768 1536v256h256v-256h-256zM1280 1024v512h256v-256h256v-256h-512zM1536 1536v256h256v-256h-256z" />
<glyph unicode="&#x201d;" d="M512 1024v256h256v-256h-256zM512 1536v256h512v-512h-256v256h-256zM1280 1024v256h256v-256h-256zM1280 1536v256h512v-512h-256v256h-256z" />
<glyph unicode="&#x201e;" d="M512 0v256h256v-256h-256zM512 512v256h512v-512h-256v256h-256zM1280 0v256h256v-256h-256zM1280 512v256h512v-512h-256v256h-256z" />
<glyph unicode="&#x2022;" d="M512 512v512h512v-512h-512z" />
<glyph unicode="&#x2026;" d="M256 0v512h512v-512h-512zM1280 0v512h512v-512h-512z" />
<glyph unicode="&#x202f;" horiz-adv-x="409" />
<glyph unicode="&#x2039;" d="M768 768v256h256v-256h-256zM1024 512v256h256v-256h-256zM1024 1024v256h256v-256h-256zM1280 256v256h256v-256h-256zM1280 1280v256h256v-256h-256zM1536 0v256h256v-256h-256zM1536 1536v256h256v-256h-256z" />
<glyph unicode="&#x203a;" d="M512 0v256h256v-256h-256zM512 1536v256h256v-256h-256zM768 256v256h256v-256h-256zM768 1280v256h256v-256h-256zM1024 512v256h256v-256h-256zM1024 1024v256h256v-256h-256zM1280 768v256h256v-256h-256z" />
<glyph unicode="&#x205f;" horiz-adv-x="512" />
<glyph unicode="&#xe000;" horiz-adv-x="1280" d="M0 0v1280h1280v-1280h-1280z" />
</font>
</defs>
</svg>
